<svg xmlns="http://www.w3.org/2000/svg"  viewBox="0 0 50 50" width="50px" height="50px"><path d="M4,12.75C4,7.918,7.918,4,12.75,4h24.5C42.082,4,46,7.918,46,12.75v24.5c0,4.832-3.918,8.75-8.75,8.75h-24.5 C7.918,46,4,42.082,4,37.25V12.75z M38,22v-6c0-0.553-0.447-1-1-1s-1,0.447-1,1v6c0,0.553,0.447,1,1,1S38,22.553,38,22z M14,22v-6 c0-0.553-0.447-1-1-1s-1,0.447-1,1v6c0,0.553,0.447,1,1,1S14,22.553,14,22z M27.777,27.629c0.19-0.235,0.264-0.543,0.2-0.839l-3-14 c-0.116-0.539-0.642-0.891-1.188-0.768c-0.54,0.115-0.884,0.647-0.768,1.188L25.763,26h-4.11c-0.553,0-1,0.447-1,1s0.447,1,1,1H27 C27.302,28,27.588,27.863,27.777,27.629z M38,29c0-0.553-0.447-1-1-1s-1,0.447-1,1c0,6.961-6.266,8-10,8c-0.553,0-1,0.447-1,1 s0.447,1,1,1C33.514,39,38,35.262,38,29z"/></svg>